<svg xmlns="http://www.w3.org/2000/svg" version="1.1" xmlns:xlink="http://www.w3.org/1999/xlink" xmlns:svgjs="http://svgjs.dev/svgjs" width="1600" height="560" preserveAspectRatio="none" viewBox="0 0 1600 560"><g mask="url(&quot;#SvgjsMask1014&quot;)" fill="none"><path d="M1907.97 250.66C1702.35 246.9 1435.14-14.28 1130.52-18.14 825.89-22 841.26-102.45 741.79-102.94" stroke="rgba(8, 245, 110, 0.91)" stroke-width="2"></path><path d="M1867.88 187.51C1730.62 189.56 1612.11 356.66 1345.11 355.51 1078.11 354.36 983.53-10.23 822.34-30.37" stroke="rgba(8, 245, 110, 0.91)" stroke-width="2"></path><path d="M1674.2 525.46C1487.67 525.04 1329.85 410.54 938.32 402.26 546.79 393.98 412.98 2.84 202.44-10.98" stroke="rgba(8, 245, 110, 0.91)" stroke-width="2"></path><path d="M1894.4 440.69C1715.08 440.01 1563.64 307.8 1190.92 300.69 818.2 293.58 684.08-43.52 487.44-53.31" stroke="rgba(8, 245, 110, 0.91)" stroke-width="2"></path><path d="M1820.92 500.13C1675.34 498.82 1503.46 367.6 1258.56 348.93 1013.66 330.26 1083.72 33.88 977.38-3.46" stroke="rgba(8, 245, 110, 0.91)" stroke-width="2"></path></g><defs><mask id="SvgjsMask1014"><rect width="1600" height="560" fill="#ffffff"></rect></mask></defs></svg>