<svg xmlns="http://www.w3.org/2000/svg" version="1.1" xmlns:xlink="http://www.w3.org/1999/xlink" xmlns:svgjs="http://svgjs.dev/svgjs" width="1440" height="560" preserveAspectRatio="none" viewBox="0 0 1440 560"><g mask="url(&quot;#SvgjsMask1373&quot;)" fill="none"><rect width="1440" height="560" x="0" y="0" fill="rgba(255, 255, 255, 1)"></rect><path d="M 0,223 C 57.6,196.2 172.8,87 288,89 C 403.2,91 460.8,246.2 576,233 C 691.2,219.8 748.8,15.6 864,23 C 979.2,30.4 1036.8,248 1152,270 C 1267.2,292 1382.4,160.4 1440,133L1440 560L0 560z" fill="rgba(255, 255, 255, 1)"></path><path d="M 0,412 C 57.6,440.8 172.8,571.6 288,556 C 403.2,540.4 460.8,347.8 576,334 C 691.2,320.2 748.8,494 864,487 C 979.2,480 1036.8,295.4 1152,299 C 1267.2,302.6 1382.4,463.8 1440,505L1440 560L0 560z" fill="rgba(12, 162, 4, 1)"></path></g><defs><mask id="SvgjsMask1373"><rect width="1440" height="560" fill="#ffffff"></rect></mask></defs></svg>